<mxfile host="app.diagrams.net" modified="2023-12-05T15:17:38.324Z" agent="Mozilla/5.0 (Windows NT 10.0; Win64; x64; rv:120.0) Gecko/20100101 Firefox/120.0" etag="Wdiy_uY8ssp9d5bJ29ai" version="22.1.5" type="device">
  <diagram name="Page-1" id="2YBvvXClWsGukQMizWep">
    <mxGraphModel dx="704" dy="627" grid="1" gridSize="10" guides="1" tooltips="1" connect="1" arrows="1" fold="1" page="1" pageScale="1" pageWidth="850" pageHeight="1100" math="0" shadow="0">
      <root>
        <mxCell id="0" />
        <mxCell id="1" parent="0" />
        <mxCell id="QFnC96fmeQrWTmHDwa4i-30" value="CKB platform" style="shape=umlLifeline;perimeter=lifelinePerimeter;whiteSpace=wrap;html=1;container=0;dropTarget=0;collapsible=0;recursiveResize=0;outlineConnect=0;portConstraint=eastwest;newEdgeStyle={&quot;edgeStyle&quot;:&quot;elbowEdgeStyle&quot;,&quot;elbow&quot;:&quot;vertical&quot;,&quot;curved&quot;:0,&quot;rounded&quot;:0};" vertex="1" parent="1">
          <mxGeometry x="570" y="370" width="100" height="780" as="geometry" />
        </mxCell>
        <mxCell id="QFnC96fmeQrWTmHDwa4i-31" value="" style="html=1;points=[];perimeter=orthogonalPerimeter;outlineConnect=0;targetShapes=umlLifeline;portConstraint=eastwest;newEdgeStyle={&quot;edgeStyle&quot;:&quot;elbowEdgeStyle&quot;,&quot;elbow&quot;:&quot;vertical&quot;,&quot;curved&quot;:0,&quot;rounded&quot;:0};" vertex="1" parent="QFnC96fmeQrWTmHDwa4i-30">
          <mxGeometry x="45" y="70" width="10" height="30" as="geometry" />
        </mxCell>
        <mxCell id="QFnC96fmeQrWTmHDwa4i-32" value="" style="html=1;points=[];perimeter=orthogonalPerimeter;outlineConnect=0;targetShapes=umlLifeline;portConstraint=eastwest;newEdgeStyle={&quot;edgeStyle&quot;:&quot;elbowEdgeStyle&quot;,&quot;elbow&quot;:&quot;vertical&quot;,&quot;curved&quot;:0,&quot;rounded&quot;:0};" vertex="1" parent="QFnC96fmeQrWTmHDwa4i-30">
          <mxGeometry x="45" y="210" width="10" height="220" as="geometry" />
        </mxCell>
        <mxCell id="QFnC96fmeQrWTmHDwa4i-33" value="" style="html=1;points=[[0,0,0,0,5],[0,1,0,0,-5],[1,0,0,0,5],[1,1,0,0,-5]];perimeter=orthogonalPerimeter;outlineConnect=0;targetShapes=umlLifeline;portConstraint=eastwest;newEdgeStyle={&quot;curved&quot;:0,&quot;rounded&quot;:0};" vertex="1" parent="QFnC96fmeQrWTmHDwa4i-30">
          <mxGeometry x="50" y="230" width="10" height="20" as="geometry" />
        </mxCell>
        <mxCell id="QFnC96fmeQrWTmHDwa4i-34" value="&lt;font style=&quot;font-size: 9px;&quot;&gt;6 : validate&lt;/font&gt;&lt;font style=&quot;font-size: 9px;&quot;&gt;UpdatedData&lt;/font&gt;&lt;font style=&quot;font-size: 9px;&quot;&gt;()&lt;/font&gt;" style="html=1;align=left;spacingLeft=2;endArrow=block;rounded=0;edgeStyle=orthogonalEdgeStyle;curved=0;rounded=0;" edge="1" parent="QFnC96fmeQrWTmHDwa4i-30" target="QFnC96fmeQrWTmHDwa4i-33">
          <mxGeometry relative="1" as="geometry">
            <mxPoint x="55" y="220.0344827586208" as="sourcePoint" />
            <Array as="points">
              <mxPoint x="80" y="220" />
              <mxPoint x="80" y="230" />
            </Array>
            <mxPoint x="55.000000000000114" y="200" as="targetPoint" />
          </mxGeometry>
        </mxCell>
        <mxCell id="QFnC96fmeQrWTmHDwa4i-35" value="&lt;font style=&quot;font-size: 9px;&quot;&gt;Educator&lt;/font&gt;" style="shape=umlActor;verticalLabelPosition=bottom;verticalAlign=top;html=1;outlineConnect=0;" vertex="1" parent="1">
          <mxGeometry x="410" y="370" width="20" height="40" as="geometry" />
        </mxCell>
        <mxCell id="QFnC96fmeQrWTmHDwa4i-36" value="" style="endArrow=none;dashed=1;html=1;rounded=0;" edge="1" parent="1" source="QFnC96fmeQrWTmHDwa4i-38">
          <mxGeometry width="50" height="50" relative="1" as="geometry">
            <mxPoint x="420" y="680" as="sourcePoint" />
            <mxPoint x="420" y="430" as="targetPoint" />
          </mxGeometry>
        </mxCell>
        <mxCell id="QFnC96fmeQrWTmHDwa4i-37" value="" style="endArrow=none;dashed=1;html=1;rounded=0;" edge="1" parent="1">
          <mxGeometry width="50" height="50" relative="1" as="geometry">
            <mxPoint x="420" y="800" as="sourcePoint" />
            <mxPoint x="420" y="789.9999999999998" as="targetPoint" />
          </mxGeometry>
        </mxCell>
        <mxCell id="QFnC96fmeQrWTmHDwa4i-38" value="" style="html=1;points=[];perimeter=orthogonalPerimeter;outlineConnect=0;targetShapes=umlLifeline;portConstraint=eastwest;newEdgeStyle={&quot;edgeStyle&quot;:&quot;elbowEdgeStyle&quot;,&quot;elbow&quot;:&quot;vertical&quot;,&quot;curved&quot;:0,&quot;rounded&quot;:0};" vertex="1" parent="1">
          <mxGeometry x="415" y="440" width="10" height="710" as="geometry" />
        </mxCell>
        <mxCell id="QFnC96fmeQrWTmHDwa4i-39" value="&lt;font style=&quot;font-size: 9px;&quot;&gt;1 : click(updateBadgeButton)&lt;/font&gt;" style="html=1;verticalAlign=bottom;endArrow=block;edgeStyle=elbowEdgeStyle;elbow=vertical;curved=0;rounded=0;" edge="1" parent="1" source="QFnC96fmeQrWTmHDwa4i-38" target="QFnC96fmeQrWTmHDwa4i-31">
          <mxGeometry relative="1" as="geometry">
            <mxPoint x="460" y="440" as="sourcePoint" />
            <Array as="points">
              <mxPoint x="540" y="440" />
            </Array>
            <mxPoint x="625" y="440" as="targetPoint" />
          </mxGeometry>
        </mxCell>
        <mxCell id="QFnC96fmeQrWTmHDwa4i-40" value="&lt;font style=&quot;font-size: 9px;&quot;&gt;2 : showPage(updateBadgePage)&lt;/font&gt;" style="html=1;verticalAlign=bottom;endArrow=openThin;dashed=1;endSize=8;edgeStyle=elbowEdgeStyle;elbow=vertical;curved=0;rounded=0;endFill=0;" edge="1" parent="1" source="QFnC96fmeQrWTmHDwa4i-31" target="QFnC96fmeQrWTmHDwa4i-38">
          <mxGeometry relative="1" as="geometry">
            <mxPoint x="460" y="470" as="targetPoint" />
            <Array as="points">
              <mxPoint x="515" y="470" />
            </Array>
            <mxPoint x="590" y="470" as="sourcePoint" />
          </mxGeometry>
        </mxCell>
        <mxCell id="QFnC96fmeQrWTmHDwa4i-41" value="" style="html=1;points=[[0,0,0,0,5],[0,1,0,0,-5],[1,0,0,0,5],[1,1,0,0,-5]];perimeter=orthogonalPerimeter;outlineConnect=0;targetShapes=umlLifeline;portConstraint=eastwest;newEdgeStyle={&quot;curved&quot;:0,&quot;rounded&quot;:0};" vertex="1" parent="1">
          <mxGeometry x="420" y="500" width="10" height="30" as="geometry" />
        </mxCell>
        <mxCell id="QFnC96fmeQrWTmHDwa4i-42" value="&lt;font style=&quot;font-size: 9px;&quot;&gt;5 : send(updatedData)&lt;/font&gt;" style="html=1;verticalAlign=bottom;endArrow=block;edgeStyle=elbowEdgeStyle;elbow=vertical;curved=0;rounded=0;" edge="1" parent="1">
          <mxGeometry relative="1" as="geometry">
            <mxPoint x="424.9999999999998" y="580" as="sourcePoint" />
            <Array as="points">
              <mxPoint x="540" y="580" />
            </Array>
            <mxPoint x="615" y="580" as="targetPoint" />
          </mxGeometry>
        </mxCell>
        <mxCell id="QFnC96fmeQrWTmHDwa4i-43" value="&lt;font style=&quot;font-size: 9px;&quot;&gt;7 : displayOutcome(confirmation)&lt;/font&gt;" style="html=1;verticalAlign=bottom;endArrow=openThin;dashed=1;endSize=8;edgeStyle=elbowEdgeStyle;elbow=vertical;curved=0;rounded=0;endFill=0;" edge="1" parent="1">
          <mxGeometry relative="1" as="geometry">
            <mxPoint x="424.9999999999998" y="650" as="targetPoint" />
            <Array as="points">
              <mxPoint x="520" y="650" />
            </Array>
            <mxPoint x="615" y="650" as="sourcePoint" />
          </mxGeometry>
        </mxCell>
        <mxCell id="QFnC96fmeQrWTmHDwa4i-44" value="&lt;b&gt;alt &lt;/b&gt;outcome == true" style="shape=umlFrame;whiteSpace=wrap;html=1;pointerEvents=0;width=120;height=15;fontSize=11;" vertex="1" parent="1">
          <mxGeometry x="350" y="620" width="320" height="180" as="geometry" />
        </mxCell>
        <mxCell id="QFnC96fmeQrWTmHDwa4i-45" value="[then]" style="text;html=1;strokeColor=none;fillColor=none;align=center;verticalAlign=middle;whiteSpace=wrap;rounded=0;fontSize=10;" vertex="1" parent="1">
          <mxGeometry x="360" y="640" width="35" height="10" as="geometry" />
        </mxCell>
        <mxCell id="QFnC96fmeQrWTmHDwa4i-46" value="" style="endArrow=none;dashed=1;html=1;rounded=0;exitX=0.001;exitY=0.409;exitDx=0;exitDy=0;exitPerimeter=0;strokeWidth=2;" edge="1" parent="1">
          <mxGeometry width="50" height="50" relative="1" as="geometry">
            <mxPoint x="350" y="710.75" as="sourcePoint" />
            <mxPoint x="670" y="710" as="targetPoint" />
          </mxGeometry>
        </mxCell>
        <mxCell id="QFnC96fmeQrWTmHDwa4i-47" value="[else]" style="text;html=1;strokeColor=none;fillColor=none;align=center;verticalAlign=middle;whiteSpace=wrap;rounded=0;fontSize=10;" vertex="1" parent="1">
          <mxGeometry x="360" y="720" width="35" height="10" as="geometry" />
        </mxCell>
        <mxCell id="QFnC96fmeQrWTmHDwa4i-48" value="&lt;font style=&quot;font-size: 9px;&quot;&gt;10 : displayOutcome(error)&lt;/font&gt;" style="html=1;verticalAlign=bottom;endArrow=openThin;dashed=1;endSize=8;edgeStyle=elbowEdgeStyle;elbow=vertical;curved=0;rounded=0;endFill=0;" edge="1" parent="1">
          <mxGeometry relative="1" as="geometry">
            <mxPoint x="425" y="740" as="targetPoint" />
            <Array as="points">
              <mxPoint x="520" y="740" />
            </Array>
            <mxPoint x="610" y="740" as="sourcePoint" />
          </mxGeometry>
        </mxCell>
        <mxCell id="QFnC96fmeQrWTmHDwa4i-49" value="&lt;font style=&quot;font-size: 9px;&quot;&gt;3 : fillUpdateBadgeForm(data)&lt;/font&gt;" style="html=1;align=left;spacingLeft=2;endArrow=block;rounded=0;edgeStyle=orthogonalEdgeStyle;curved=0;rounded=0;" edge="1" parent="1" source="QFnC96fmeQrWTmHDwa4i-38" target="QFnC96fmeQrWTmHDwa4i-41">
          <mxGeometry relative="1" as="geometry">
            <mxPoint x="430" y="490" as="sourcePoint" />
            <Array as="points">
              <mxPoint x="450" y="490" />
              <mxPoint x="450" y="500" />
            </Array>
            <mxPoint x="435" y="520" as="targetPoint" />
          </mxGeometry>
        </mxCell>
        <mxCell id="QFnC96fmeQrWTmHDwa4i-50" value="&lt;p style=&quot;line-height: 120%;&quot;&gt;&lt;font style=&quot;font-size: 10px;&quot;&gt;&lt;b&gt;loop&lt;/b&gt;: outcome == false&lt;/font&gt;&lt;/p&gt;" style="shape=umlFrame;whiteSpace=wrap;html=1;pointerEvents=0;width=70;height=40;verticalAlign=middle;horizontal=1;labelPosition=center;verticalLabelPosition=middle;align=center;" vertex="1" parent="1">
          <mxGeometry x="330" y="450" width="450" height="420" as="geometry" />
        </mxCell>
        <mxCell id="QFnC96fmeQrWTmHDwa4i-51" value="" style="html=1;points=[[0,0,0,0,5],[0,1,0,0,-5],[1,0,0,0,5],[1,1,0,0,-5]];perimeter=orthogonalPerimeter;outlineConnect=0;targetShapes=umlLifeline;portConstraint=eastwest;newEdgeStyle={&quot;curved&quot;:0,&quot;rounded&quot;:0};" vertex="1" parent="1">
          <mxGeometry x="420" y="550" width="10" height="20" as="geometry" />
        </mxCell>
        <mxCell id="QFnC96fmeQrWTmHDwa4i-52" value="&lt;font style=&quot;font-size: 9px;&quot;&gt;4 : click(confirmationButton)&lt;/font&gt;" style="html=1;align=left;spacingLeft=2;endArrow=block;rounded=0;edgeStyle=orthogonalEdgeStyle;curved=0;rounded=0;" edge="1" parent="1" target="QFnC96fmeQrWTmHDwa4i-51" source="QFnC96fmeQrWTmHDwa4i-51">
          <mxGeometry x="0.0759" relative="1" as="geometry">
            <mxPoint x="425" y="590" as="sourcePoint" />
            <Array as="points">
              <mxPoint x="425" y="540" />
              <mxPoint x="450" y="540" />
              <mxPoint x="450" y="550" />
            </Array>
            <mxPoint x="435" y="620" as="targetPoint" />
            <mxPoint as="offset" />
          </mxGeometry>
        </mxCell>
        <mxCell id="QFnC96fmeQrWTmHDwa4i-55" value="&lt;font style=&quot;font-size: 9px;&quot;&gt;8 : click(continueButton)&lt;/font&gt;" style="html=1;verticalAlign=bottom;endArrow=block;edgeStyle=elbowEdgeStyle;elbow=vertical;curved=0;rounded=0;" edge="1" parent="1" target="QFnC96fmeQrWTmHDwa4i-32">
          <mxGeometry relative="1" as="geometry">
            <mxPoint x="425" y="670" as="sourcePoint" />
            <Array as="points">
              <mxPoint x="540" y="670" />
            </Array>
            <mxPoint x="610" y="670" as="targetPoint" />
          </mxGeometry>
        </mxCell>
        <mxCell id="QFnC96fmeQrWTmHDwa4i-56" value="&lt;font style=&quot;font-size: 9px;&quot;&gt;9 : showPage(badgeUpdateConfirmPage)&lt;/font&gt;" style="html=1;verticalAlign=bottom;endArrow=openThin;dashed=1;endSize=8;edgeStyle=elbowEdgeStyle;elbow=vertical;curved=0;rounded=0;endFill=0;" edge="1" parent="1">
          <mxGeometry relative="1" as="geometry">
            <mxPoint x="425" y="690" as="targetPoint" />
            <Array as="points">
              <mxPoint x="520" y="690" />
            </Array>
            <mxPoint x="610" y="690" as="sourcePoint" />
          </mxGeometry>
        </mxCell>
        <mxCell id="QFnC96fmeQrWTmHDwa4i-57" value="&lt;font style=&quot;font-size: 9px;&quot;&gt;11 : click(continueButton)&lt;/font&gt;" style="html=1;verticalAlign=bottom;endArrow=block;edgeStyle=elbowEdgeStyle;elbow=vertical;curved=0;rounded=0;" edge="1" parent="1">
          <mxGeometry relative="1" as="geometry">
            <mxPoint x="425" y="760" as="sourcePoint" />
            <Array as="points">
              <mxPoint x="540" y="760" />
            </Array>
            <mxPoint x="615" y="759.9999999999998" as="targetPoint" />
          </mxGeometry>
        </mxCell>
        <mxCell id="QFnC96fmeQrWTmHDwa4i-58" value="&lt;font style=&quot;font-size: 9px;&quot;&gt;12 : showPage(tournamentCreationPage)&lt;/font&gt;" style="html=1;verticalAlign=bottom;endArrow=openThin;dashed=1;endSize=8;edgeStyle=elbowEdgeStyle;elbow=vertical;curved=0;rounded=0;endFill=0;" edge="1" parent="1">
          <mxGeometry relative="1" as="geometry">
            <mxPoint x="425" y="780" as="targetPoint" />
            <Array as="points">
              <mxPoint x="520" y="780" />
            </Array>
            <mxPoint x="615" y="759.9999999999998" as="sourcePoint" />
          </mxGeometry>
        </mxCell>
        <mxCell id="QFnC96fmeQrWTmHDwa4i-59" value="&lt;p style=&quot;line-height: 120%;&quot;&gt;&lt;font style=&quot;font-size: 10px;&quot;&gt;&lt;b&gt;loop&lt;/b&gt;: outcome == false&lt;/font&gt;&lt;/p&gt;" style="shape=umlFrame;whiteSpace=wrap;html=1;pointerEvents=0;width=70;height=40;verticalAlign=middle;horizontal=1;labelPosition=center;verticalLabelPosition=middle;align=center;" vertex="1" parent="1">
          <mxGeometry x="285" y="910" width="495" height="270" as="geometry" />
        </mxCell>
        <mxCell id="QFnC96fmeQrWTmHDwa4i-61" value="&lt;font style=&quot;font-size: 9px;&quot;&gt;13 : click(deleteBadgeButton)&lt;/font&gt;" style="html=1;verticalAlign=bottom;endArrow=block;edgeStyle=elbowEdgeStyle;elbow=vertical;curved=0;rounded=0;" edge="1" parent="1" target="QFnC96fmeQrWTmHDwa4i-62">
          <mxGeometry relative="1" as="geometry">
            <mxPoint x="425" y="930" as="sourcePoint" />
            <Array as="points">
              <mxPoint x="540" y="900" />
            </Array>
            <mxPoint x="615" y="930" as="targetPoint" />
          </mxGeometry>
        </mxCell>
        <mxCell id="QFnC96fmeQrWTmHDwa4i-62" value="" style="html=1;points=[];perimeter=orthogonalPerimeter;outlineConnect=0;targetShapes=umlLifeline;portConstraint=eastwest;newEdgeStyle={&quot;edgeStyle&quot;:&quot;elbowEdgeStyle&quot;,&quot;elbow&quot;:&quot;vertical&quot;,&quot;curved&quot;:0,&quot;rounded&quot;:0};" vertex="1" parent="1">
          <mxGeometry x="615" y="900" width="10" height="30" as="geometry" />
        </mxCell>
        <mxCell id="QFnC96fmeQrWTmHDwa4i-71" value="&lt;b&gt;alt &lt;/b&gt;" style="shape=umlFrame;whiteSpace=wrap;html=1;pointerEvents=0;width=50;height=15;fontSize=11;" vertex="1" parent="1">
          <mxGeometry x="330" y="970" width="430" height="180" as="geometry" />
        </mxCell>
        <mxCell id="QFnC96fmeQrWTmHDwa4i-73" value="&lt;div style=&quot;font-size: 9px;&quot;&gt;&lt;font style=&quot;font-size: 9px;&quot;&gt;[Confirm&lt;/font&gt;&lt;/div&gt;&lt;div style=&quot;font-size: 9px;&quot;&gt;&lt;font style=&quot;font-size: 9px;&quot;&gt;Button&lt;br&gt;pressed]&lt;/font&gt;&lt;/div&gt;" style="text;html=1;strokeColor=none;fillColor=none;align=center;verticalAlign=middle;whiteSpace=wrap;rounded=0;fontSize=10;" vertex="1" parent="1">
          <mxGeometry x="350" y="1000" width="50" height="10" as="geometry" />
        </mxCell>
        <mxCell id="QFnC96fmeQrWTmHDwa4i-74" value="" style="endArrow=none;dashed=1;html=1;rounded=0;strokeWidth=2;entryX=0.991;entryY=0.553;entryDx=0;entryDy=0;entryPerimeter=0;" edge="1" parent="1" source="QFnC96fmeQrWTmHDwa4i-82" target="QFnC96fmeQrWTmHDwa4i-71">
          <mxGeometry width="50" height="50" relative="1" as="geometry">
            <mxPoint x="330" y="1070.75" as="sourcePoint" />
            <mxPoint x="650" y="1070" as="targetPoint" />
          </mxGeometry>
        </mxCell>
        <mxCell id="QFnC96fmeQrWTmHDwa4i-75" value="&lt;div style=&quot;font-size: 9px;&quot;&gt;&lt;font style=&quot;font-size: 9px;&quot;&gt;[Cancel&lt;/font&gt;&lt;/div&gt;&lt;div style=&quot;font-size: 9px;&quot;&gt;&lt;font style=&quot;font-size: 9px;&quot;&gt;Button&lt;br&gt;pressed]&lt;/font&gt;&lt;/div&gt;" style="text;html=1;strokeColor=none;fillColor=none;align=center;verticalAlign=middle;whiteSpace=wrap;rounded=0;fontSize=10;" vertex="1" parent="1">
          <mxGeometry x="350" y="1090" width="50" height="10" as="geometry" />
        </mxCell>
        <mxCell id="QFnC96fmeQrWTmHDwa4i-76" value="&lt;font style=&quot;font-size: 9px;&quot;&gt;&amp;nbsp;&lt;/font&gt;&lt;font style=&quot;font-size: 9px;&quot;&gt;14&lt;/font&gt;&lt;font style=&quot;font-size: 9px;&quot;&gt; : showPage(deleteBadgePage)&lt;/font&gt;" style="html=1;verticalAlign=bottom;endArrow=openThin;dashed=1;endSize=8;edgeStyle=elbowEdgeStyle;elbow=vertical;curved=0;rounded=0;endFill=0;" edge="1" parent="1">
          <mxGeometry relative="1" as="geometry">
            <mxPoint x="425" y="930" as="targetPoint" />
            <Array as="points">
              <mxPoint x="515" y="930" />
            </Array>
            <mxPoint x="615" y="930" as="sourcePoint" />
          </mxGeometry>
        </mxCell>
        <mxCell id="QFnC96fmeQrWTmHDwa4i-81" value="&lt;font style=&quot;font-size: 9px;&quot;&gt;15 : click(confirmButton)&lt;/font&gt;" style="html=1;verticalAlign=bottom;endArrow=block;edgeStyle=elbowEdgeStyle;elbow=vertical;curved=0;rounded=0;" edge="1" parent="1">
          <mxGeometry relative="1" as="geometry">
            <mxPoint x="425" y="990" as="sourcePoint" />
            <Array as="points">
              <mxPoint x="540" y="990" />
            </Array>
            <mxPoint x="615" y="989.9999999999998" as="targetPoint" />
          </mxGeometry>
        </mxCell>
        <mxCell id="QFnC96fmeQrWTmHDwa4i-83" value="" style="endArrow=none;dashed=1;html=1;rounded=0;exitX=0.001;exitY=0.409;exitDx=0;exitDy=0;exitPerimeter=0;strokeWidth=2;" edge="1" parent="1" target="QFnC96fmeQrWTmHDwa4i-82">
          <mxGeometry width="50" height="50" relative="1" as="geometry">
            <mxPoint x="330" y="1070.75" as="sourcePoint" />
            <mxPoint x="650" y="1070" as="targetPoint" />
          </mxGeometry>
        </mxCell>
        <mxCell id="QFnC96fmeQrWTmHDwa4i-82" value="" style="html=1;points=[];perimeter=orthogonalPerimeter;outlineConnect=0;targetShapes=umlLifeline;portConstraint=eastwest;newEdgeStyle={&quot;edgeStyle&quot;:&quot;elbowEdgeStyle&quot;,&quot;elbow&quot;:&quot;vertical&quot;,&quot;curved&quot;:0,&quot;rounded&quot;:0};" vertex="1" parent="1">
          <mxGeometry x="615" y="990" width="10" height="160" as="geometry" />
        </mxCell>
        <mxCell id="QFnC96fmeQrWTmHDwa4i-86" value="" style="html=1;points=[[0,0,0,0,5],[0,1,0,0,-5],[1,0,0,0,5],[1,1,0,0,-5]];perimeter=orthogonalPerimeter;outlineConnect=0;targetShapes=umlLifeline;portConstraint=eastwest;newEdgeStyle={&quot;curved&quot;:0,&quot;rounded&quot;:0};" vertex="1" parent="1">
          <mxGeometry x="620" y="1009.97" width="10" height="20" as="geometry" />
        </mxCell>
        <mxCell id="QFnC96fmeQrWTmHDwa4i-87" value="&lt;font style=&quot;font-size: 9px;&quot;&gt;16 : deleteBadge&lt;/font&gt;&lt;font style=&quot;font-size: 9px;&quot;&gt;()&lt;/font&gt;" style="html=1;align=left;spacingLeft=2;endArrow=block;rounded=0;edgeStyle=orthogonalEdgeStyle;curved=0;rounded=0;" edge="1" parent="1" target="QFnC96fmeQrWTmHDwa4i-86">
          <mxGeometry relative="1" as="geometry">
            <mxPoint x="625" y="1000.0044827586208" as="sourcePoint" />
            <Array as="points">
              <mxPoint x="650" y="1000" />
              <mxPoint x="650" y="1010" />
            </Array>
            <mxPoint x="625.0000000000001" y="979.97" as="targetPoint" />
          </mxGeometry>
        </mxCell>
        <mxCell id="QFnC96fmeQrWTmHDwa4i-88" value="&lt;font style=&quot;font-size: 9px;&quot;&gt;&amp;nbsp;&lt;/font&gt;&lt;font style=&quot;font-size: 9px;&quot;&gt;17&lt;/font&gt;&lt;font style=&quot;font-size: 9px;&quot;&gt; : showPage(tournamentCreationPage)&lt;/font&gt;" style="html=1;verticalAlign=bottom;endArrow=openThin;dashed=1;endSize=8;edgeStyle=elbowEdgeStyle;elbow=vertical;curved=0;rounded=0;endFill=0;" edge="1" parent="1">
          <mxGeometry relative="1" as="geometry">
            <mxPoint x="425" y="1040" as="targetPoint" />
            <Array as="points">
              <mxPoint x="515" y="1040" />
            </Array>
            <mxPoint x="615" y="1040" as="sourcePoint" />
          </mxGeometry>
        </mxCell>
        <mxCell id="QFnC96fmeQrWTmHDwa4i-90" value="&lt;font style=&quot;font-size: 9px;&quot;&gt;18 : click(cancelButton)&lt;/font&gt;" style="html=1;verticalAlign=bottom;endArrow=block;edgeStyle=elbowEdgeStyle;elbow=vertical;curved=0;rounded=0;" edge="1" parent="1">
          <mxGeometry relative="1" as="geometry">
            <mxPoint x="425" y="1100" as="sourcePoint" />
            <Array as="points">
              <mxPoint x="540" y="1100" />
            </Array>
            <mxPoint x="615" y="1099.9999999999998" as="targetPoint" />
          </mxGeometry>
        </mxCell>
        <mxCell id="QFnC96fmeQrWTmHDwa4i-93" value="&lt;font style=&quot;font-size: 9px;&quot;&gt;&amp;nbsp;&lt;/font&gt;&lt;font style=&quot;font-size: 9px;&quot;&gt;19&lt;/font&gt;&lt;font style=&quot;font-size: 9px;&quot;&gt; : showPage(tournamentCreationPage)&lt;/font&gt;" style="html=1;verticalAlign=bottom;endArrow=openThin;dashed=1;endSize=8;edgeStyle=elbowEdgeStyle;elbow=vertical;curved=0;rounded=0;endFill=0;" edge="1" parent="1">
          <mxGeometry relative="1" as="geometry">
            <mxPoint x="425" y="1130" as="targetPoint" />
            <Array as="points">
              <mxPoint x="515" y="1130" />
            </Array>
            <mxPoint x="615" y="1130" as="sourcePoint" />
          </mxGeometry>
        </mxCell>
      </root>
    </mxGraphModel>
  </diagram>
</mxfile>
